<svg width="224" height="153" viewBox="0 0 224 153" fill="none" xmlns="http://www.w3.org/2000/svg">
<path d="M28.9985 147.269C31.1843 150.514 34.254 152.355 37.4664 152.35L82.9 152.265C86.4856 152.258 90.0196 151.101 93.2161 148.887L194.483 78.8344C203.79 72.3961 212.132 63.206 217.809 51.1693C224.181 37.657 224.874 27.8786 222.358 20.9706C219.848 14.0579 213.747 8.98127 202.084 7.94697C191.695 7.02654 181.362 10.7557 172.055 17.1892L137.769 40.9069L61.652 1.97365C60.7368 1.1332 59.6735 0.641254 58.5721 0.548667C57.4707 0.45608 56.3712 0.766218 55.3872 1.44702L32.5033 17.2794C28.7897 19.8461 27.8918 26.6023 30.704 30.8154L85.0753 77.3588L49.1537 102.21L23.9728 84.9073C23.1052 84.3111 22.147 84.0013 21.1754 84.0029C20.2039 84.0046 19.2462 84.3176 18.3797 84.9168L4.41275 94.5813C0.779173 97.0959 -0.177947 103.653 2.47414 107.904L28.9985 147.269Z" fill="white"/>
</svg>
